# xmcd
#
# Track frame offsets:
#	150
#	13987
#	24922
#	46810
#	58867
#	70910
#	87102
#	100102
#	118277
#	133032
#	143780
#	155862
#	168295
#	183537
#	200400
#	214732
#	225970
#	239415
#	254325
#	266687
#	277160
#	291947
#	305760
#	320027
#
# Disc length: 4464 seconds
#
# Revision: 2
# Processed by: cddbd v1.5.2PL0 Copyright (c) Steve Scherf et al.
# Submitted via: EZCDAudioConverter 4.0.2.1
#
DISCID=70116e18
DTITLE=Various Artist - Red River Valley Disc 1
DYEAR=1999
DGENRE=Country
TTITLE0=John Brack - Oh,My Darling Clementine
TTITLE1=Jennifer Wetherly - The Yello Rose  Of Texas
TTITLE2=Kenny Rogers - Have I Told You Latlely That I Love
TTITLE3=The Kendalls - It Don't Feel Like Sinnin'To Me
TTITLE4=Conway Twitty - She Needs Someone To Hold Her
TTITLE5=Merle Haggard - It's Not Love (But It's Not Bad)
TTITLE6=George and Lorrie Morgan - I'm Completely Satisfied With You
TTITLE7=T. Graham Brown - Don't Go To Strangers
TTITLE8=Jerry Wallace - Do You Know What It's Like To Be
TTITLE9=The Kendalls - You'd Make An Angel Want To Cheat
TTITLE10=Laura Lee - Stand By Your Man
TTITLE11=Johnny Paycheck - She's All I Got
TTITLE12=Billie Jo Spears - Blanket On The Ground
TTITLE13=Merle Haggard - Today I Started Loving You Again
TTITLE14=T. Graham Brown - Hell And High Water
TTITLE15=Conway Twitty - Hello Darlin'
TTITLE16=Lee Greenwood - Hearts Aren't Made To Break
TTITLE17=Jerry Wallace - Don't Give Up On Me
TTITLE18=Wynn Stewart - Wishful Thinking
TTITLE19=Patsy Cline - How Can I Face Tomorrow
TTITLE20=Billie Jo Spears - I Don't Want To Talk Abaut It
TTITLE21=T. Graham Brwon - I Tell It Like It Used To Be
TTITLE22=Conway Twitty - You've Never Been This Far Before
TTITLE23=Kenny Rogers - Crazy
EXTD=
EXTT0=
EXTT1=
EXTT2=
EXTT3=
EXTT4=
EXTT5=
EXTT6=
EXTT7=
EXTT8=
EXTT9=
EXTT10=
EXTT11=
EXTT12=
EXTT13=
EXTT14=
EXTT15=
EXTT16=
EXTT17=
EXTT18=
EXTT19=
EXTT20=
EXTT21=
EXTT22=
EXTT23=
PLAYORDER=
